<?xml version="1.0" encoding="iso-8859-1"?>
<svg version="1.1" id="Layer_1" xmlns="http://www.w3.org/2000/svg" xmlns:xlink="http://www.w3.org/1999/xlink" x="0px" y="0px"
	 viewBox="0 0 512 512" style="enable-background:new 0 0 512 512;" xml:space="preserve"
	width="16"
>
<path style="fill:#FF6464;" d="M255.999,388.403c-3.094,0-6.208-0.081-9.362-0.377c-50.319-4.737-87.755-48.979-87.755-99.519V8.829
	c0-4.876-3.953-8.829-8.829-8.829H44.109c-4.876,0-8.829,3.953-8.829,8.829v277.504c0,122.21,98.992,225.577,220.72,225.667V388.403
	z"/>
<path style="fill:#D7DEED;" d="M150.054,0H44.109c-4.876,0-8.829,3.953-8.829,8.829v44.144h123.603V8.829
	C158.883,3.953,154.93,0,150.054,0z"/>
<rect x="35.28" y="52.973" style="fill:#C7CFE2;" width="123.603" height="17.658"/>
<path style="fill:#28AFF0;" d="M255.999,388.403c3.094,0,6.208-0.081,9.362-0.377c50.319-4.737,87.755-48.979,87.755-99.519V8.829
	c0-4.876,3.953-8.829,8.829-8.829H467.89c4.876,0,8.829,3.953,8.829,8.829v277.504c0,122.21-98.992,225.577-220.72,225.667V388.403z
	"/>
<path style="fill:#D7DEED;" d="M361.945,0H467.89c4.876,0,8.829,3.953,8.829,8.829v44.144H353.116V8.829
	C353.116,3.953,357.068,0,361.945,0z"/>
<rect x="353.117" y="52.973" style="fill:#C7CFE2;" width="123.603" height="17.658"/>
</svg>
